# xmcd CD database file
#
# Track frame offsets:
#	150
#	20701
#	49824
#	69606
#	84769
#	90471
#	91941
#	109174
#	127487
#	141938
#	149483
#	170350
#	186573
#	207346
#
# Disc length: 2942 seconds
#
# Revision: 1
# Processed by: cddbd v1.5.2PL0 Copyright (c) Steve Scherf et al.
# Submitted via: CDex 1.70beta2
#
DISCID=d20b7c0e
DTITLE=Marvin Gaye - I Want You [DeLuxe Edition] [CD1]
DYEAR=1976
DGENRE=Soul
TTITLE0=I Want You [Vocal]
TTITLE1=Come Live With Me Angel
TTITLE2=After The Dance [Instrumental]
TTITLE3=Feel All My Love Inside
TTITLE4=I Wanna Be Where You Are
TTITLE5=I Want You (Intro Jam)
TTITLE6=All The Way Around
TTITLE7=Since I Had You
TTITLE8=Soon I'll Be Loving You Again
TTITLE9=I Want You (Intro Jam)
TTITLE10=After The Dance [Vocal]
TTITLE11=I Want You [Vocal/Single Mix]
TTITLE12=I Want You [Instrumental/Single Mix]
TTITLE13=Strange Love (Feel All My Love Inside) [Instrumental/Single Mix]
EXTD=oldskoolmaster2000@yahoo.es YEAR: 1976
EXTT0=
EXTT1=
EXTT2=
EXTT3=
EXTT4=
EXTT5=
EXTT6=
EXTT7=
EXTT8=
EXTT9=
EXTT10=
EXTT11=
EXTT12=
EXTT13=
PLAYORDER=
